<?xml version="1.0" encoding="UTF-8"?>
<svg id="_图层_2" data-name="图层 2" xmlns="http://www.w3.org/2000/svg" viewBox="0 0 118.4 66.57">
  <defs>
    <style>
      .cls-1, .cls-2 {
        fill: #036eb8;
      }

      .cls-3 {
        font-size: 2px;
      }

      .cls-2 {
        font-family: Arial-BoldMT, Arial;
        font-weight: 700;
      }

      .cls-4 {
        letter-spacing: -.04em;
      }

      .cls-4, .cls-5 {
        font-size: 24px;
      }

      .cls-6 {
        fill: none;
        stroke: #97999b;
        stroke-miterlimit: 10;
        stroke-width: 2px;
      }

      .cls-7 {
        font-size: 22px;
      }
    </style>
  </defs>
  <g id="_图层_1-2" data-name="图层 1">
    <g>
      <polygon class="cls-6" points="27.47 25.79 14.24 33.43 1 25.79 1 10.5 14.24 2.86 27.47 10.5 27.47 25.79"/>
      <polygon class="cls-6" points="27.47 57.78 14.24 65.42 1 57.78 1 42.49 14.24 34.85 27.47 42.49 27.47 57.78"/>
      <text class="cls-2" transform="translate(4.14 27.09)"><tspan class="cls-5" x="0" y="0">M </tspan><tspan class="cls-7" x="26.66" y="0">etabo </tspan><tspan class="cls-3" x="0" y="30" xml:space="preserve">   </tspan><tspan class="cls-4" x="1.67" y="30">A</tspan><tspan class="cls-5" x="18.11" y="30"> </tspan><tspan class="cls-7" x="24.78" y="30">nnotator</tspan></text>
      <circle class="cls-1" cx="86.59" cy="4.95" r="2.09"/>
      <circle class="cls-1" cx="82.07" cy="1.61" r="1.61"/>
      <circle class="cls-1" cx="91.43" cy="9.9" r="2.75"/>
      <circle class="cls-1" cx="96.89" cy="16.69" r="4.04"/>
      <circle class="cls-1" cx="102.87" cy="25.38" r="5.05"/>
      <circle class="cls-1" cx="106.69" cy="37.19" r="5.76"/>
    </g>
  </g>
</svg>